name rise36.2859peak64.2979fall75.1499.mot
datacolumns 19
datarows 33
range 16.15494100000000 16.20827600000000
endheader
time	ground_force1_vx	ground_force1_vy	ground_force1_vz	ground_force1_px	ground_force1_py	ground_force1_pz	ground_force2_vx	ground_force2_vy	ground_force2_vz	ground_force2_px	ground_force2_py	ground_force2_pz	ground_torque1_x	ground_torque1_y	ground_torque1_z	ground_torque2_x	ground_torque2_y	ground_torque2_z	
16.15494100000000	-10.10279100000000	703.56718999999998	48.58466800000000	0.29030100000000	0.00000000000000	0.12071800000000	0.00000000000000	0.00000000000000	0.00000000000000	0.00000000000000	0.00000000000000	0.00000000000000	0.00000000000000	30.11166100000000	0.00000000000000	0.00000000000000	0.00000000000000	0.00000000000000	
16.15660700000000	-10.60321000000000	704.71694400000001	48.66249800000000	0.28883800000000	0.00000000000000	0.12077900000000	0.00000000000000	0.00000000000000	0.00000000000000	0.00000000000000	0.00000000000000	0.00000000000000	0.00000000000000	30.19194900000000	0.00000000000000	0.00000000000000	0.00000000000000	0.00000000000000	
16.15828400000000	-11.10995300000000	705.89542600000004	48.74581900000000	0.28738300000000	0.00000000000000	0.12084200000000	0.00000000000000	0.00000000000000	0.00000000000000	0.00000000000000	0.00000000000000	0.00000000000000	0.00000000000000	30.27872100000000	0.00000000000000	0.00000000000000	0.00000000000000	0.00000000000000	
16.15993600000000	-11.62325000000000	707.10099500000001	48.83436600000000	0.28593800000000	0.00000000000000	0.12090500000000	0.00000000000000	0.00000000000000	0.00000000000000	0.00000000000000	0.00000000000000	0.00000000000000	0.00000000000000	30.37188000000000	0.00000000000000	0.00000000000000	0.00000000000000	0.00000000000000	
16.16160200000000	-12.14330800000000	708.33208500000001	48.92788000000000	0.28450400000000	0.00000000000000	0.12097000000000	0.00000000000000	0.00000000000000	0.00000000000000	0.00000000000000	0.00000000000000	0.00000000000000	0.00000000000000	30.47132700000000	0.00000000000000	0.00000000000000	0.00000000000000	0.00000000000000	
16.16328200000000	-12.67030500000000	709.58720600000004	49.02611000000000	0.28308300000000	0.00000000000000	0.12103500000000	0.00000000000000	0.00000000000000	0.00000000000000	0.00000000000000	0.00000000000000	0.00000000000000	0.00000000000000	30.57695600000000	0.00000000000000	0.00000000000000	0.00000000000000	0.00000000000000	
16.16493400000000	-13.20439100000000	710.86495200000002	49.12881200000000	0.28167600000000	0.00000000000000	0.12110100000000	0.00000000000000	0.00000000000000	0.00000000000000	0.00000000000000	0.00000000000000	0.00000000000000	0.00000000000000	30.68865800000000	0.00000000000000	0.00000000000000	0.00000000000000	0.00000000000000	
16.16660200000000	-13.74568500000000	712.16399699999999	49.23574900000000	0.28028400000000	0.00000000000000	0.12116700000000	0.00000000000000	0.00000000000000	0.00000000000000	0.00000000000000	0.00000000000000	0.00000000000000	0.00000000000000	30.80631900000000	0.00000000000000	0.00000000000000	0.00000000000000	0.00000000000000	
16.16827100000000	-14.29427600000000	713.48310700000002	49.34669200000000	0.27890900000000	0.00000000000000	0.12123400000000	0.00000000000000	0.00000000000000	0.00000000000000	0.00000000000000	0.00000000000000	0.00000000000000	0.00000000000000	30.92981900000000	0.00000000000000	0.00000000000000	0.00000000000000	0.00000000000000	
16.16993500000000	-14.85021600000000	714.82113200000003	49.46142000000000	0.27755200000000	0.00000000000000	0.12130000000000	0.00000000000000	0.00000000000000	0.00000000000000	0.00000000000000	0.00000000000000	0.00000000000000	0.00000000000000	31.05903100000000	0.00000000000000	0.00000000000000	0.00000000000000	0.00000000000000	
16.17160200000000	-15.41352600000000	716.17701399999999	49.57972100000000	0.27621400000000	0.00000000000000	0.12136600000000	0.00000000000000	0.00000000000000	0.00000000000000	0.00000000000000	0.00000000000000	0.00000000000000	0.00000000000000	31.19382400000000	0.00000000000000	0.00000000000000	0.00000000000000	0.00000000000000	
16.17328600000000	-15.98419000000000	717.54978300000005	49.70139000000000	0.27489700000000	0.00000000000000	0.12143100000000	0.00000000000000	0.00000000000000	0.00000000000000	0.00000000000000	0.00000000000000	0.00000000000000	0.00000000000000	31.33405800000000	0.00000000000000	0.00000000000000	0.00000000000000	0.00000000000000	
16.17493900000000	-16.56215400000000	718.93855900000005	49.82623200000000	0.27360100000000	0.00000000000000	0.12149600000000	0.00000000000000	0.00000000000000	0.00000000000000	0.00000000000000	0.00000000000000	0.00000000000000	0.00000000000000	31.47958700000000	0.00000000000000	0.00000000000000	0.00000000000000	0.00000000000000	
16.17660500000000	-17.14732700000000	720.34255299999995	49.95405900000000	0.27232800000000	0.00000000000000	0.12156000000000	0.00000000000000	0.00000000000000	0.00000000000000	0.00000000000000	0.00000000000000	0.00000000000000	0.00000000000000	31.63025800000000	0.00000000000000	0.00000000000000	0.00000000000000	0.00000000000000	
16.17827700000000	-17.73958100000000	721.76105900000005	50.08469300000000	0.27107900000000	0.00000000000000	0.12162300000000	0.00000000000000	0.00000000000000	0.00000000000000	0.00000000000000	0.00000000000000	0.00000000000000	0.00000000000000	31.78591000000000	0.00000000000000	0.00000000000000	0.00000000000000	0.00000000000000	
16.17993900000000	-18.33874700000000	723.19345999999996	50.21796400000000	0.26985500000000	0.00000000000000	0.12168500000000	0.00000000000000	0.00000000000000	0.00000000000000	0.00000000000000	0.00000000000000	0.00000000000000	0.00000000000000	31.94637400000000	0.00000000000000	0.00000000000000	0.00000000000000	0.00000000000000	
16.18160800000000	-18.94461800000000	724.63921800000003	50.35371500000000	0.26865700000000	0.00000000000000	0.12174600000000	0.00000000000000	0.00000000000000	0.00000000000000	0.00000000000000	0.00000000000000	0.00000000000000	0.00000000000000	32.11147400000000	0.00000000000000	0.00000000000000	0.00000000000000	0.00000000000000	
16.18328700000000	-19.55694900000000	726.09787400000005	50.49179300000000	0.26748500000000	0.00000000000000	0.12180500000000	0.00000000000000	0.00000000000000	0.00000000000000	0.00000000000000	0.00000000000000	0.00000000000000	0.00000000000000	32.28102600000000	0.00000000000000	0.00000000000000	0.00000000000000	0.00000000000000	
16.18494200000000	-20.17545200000000	727.56904799999995	50.63205900000000	0.26634000000000	0.00000000000000	0.12186200000000	0.00000000000000	0.00000000000000	0.00000000000000	0.00000000000000	0.00000000000000	0.00000000000000	0.00000000000000	32.45483600000000	0.00000000000000	0.00000000000000	0.00000000000000	0.00000000000000	
16.18660700000000	-20.79980300000000	729.05242399999997	50.77438200000000	0.26522400000000	0.00000000000000	0.12191700000000	0.00000000000000	0.00000000000000	0.00000000000000	0.00000000000000	0.00000000000000	0.00000000000000	0.00000000000000	32.63270500000000	0.00000000000000	0.00000000000000	0.00000000000000	0.00000000000000	
16.18827700000000	-21.42963800000000	730.54775700000005	50.91864200000000	0.26413700000000	0.00000000000000	0.12197100000000	0.00000000000000	0.00000000000000	0.00000000000000	0.00000000000000	0.00000000000000	0.00000000000000	0.00000000000000	32.81442400000000	0.00000000000000	0.00000000000000	0.00000000000000	0.00000000000000	
16.18993600000000	-22.06455400000000	732.05485999999996	51.06472900000000	0.26308000000000	0.00000000000000	0.12202200000000	0.00000000000000	0.00000000000000	0.00000000000000	0.00000000000000	0.00000000000000	0.00000000000000	0.00000000000000	32.99977700000000	0.00000000000000	0.00000000000000	0.00000000000000	0.00000000000000	
16.19160100000000	-22.70411200000000	733.57359899999994	51.21254400000000	0.26205300000000	0.00000000000000	0.12207100000000	0.00000000000000	0.00000000000000	0.00000000000000	0.00000000000000	0.00000000000000	0.00000000000000	0.00000000000000	33.18854100000000	0.00000000000000	0.00000000000000	0.00000000000000	0.00000000000000	
16.19328400000000	-23.34783500000000	735.10388899999998	51.36199700000000	0.26105600000000	0.00000000000000	0.12211700000000	0.00000000000000	0.00000000000000	0.00000000000000	0.00000000000000	0.00000000000000	0.00000000000000	0.00000000000000	33.38048500000000	0.00000000000000	0.00000000000000	0.00000000000000	0.00000000000000	
16.19494000000000	-23.99521200000000	736.64568799999995	51.51301200000000	0.26009100000000	0.00000000000000	0.12216100000000	0.00000000000000	0.00000000000000	0.00000000000000	0.00000000000000	0.00000000000000	0.00000000000000	0.00000000000000	33.57537100000000	0.00000000000000	0.00000000000000	0.00000000000000	0.00000000000000	
16.19660600000000	-24.64569700000000	738.19898599999999	51.66552100000000	0.25915600000000	0.00000000000000	0.12220300000000	0.00000000000000	0.00000000000000	0.00000000000000	0.00000000000000	0.00000000000000	0.00000000000000	0.00000000000000	33.77295400000000	0.00000000000000	0.00000000000000	0.00000000000000	0.00000000000000	
16.19829000000000	-25.29871200000000	739.76379999999995	51.81946800000000	0.25825400000000	0.00000000000000	0.12224200000000	0.00000000000000	0.00000000000000	0.00000000000000	0.00000000000000	0.00000000000000	0.00000000000000	0.00000000000000	33.97298300000000	0.00000000000000	0.00000000000000	0.00000000000000	0.00000000000000	
16.19993500000000	-25.95364700000000	741.34016799999995	51.97480800000000	0.25738300000000	0.00000000000000	0.12227800000000	0.00000000000000	0.00000000000000	0.00000000000000	0.00000000000000	0.00000000000000	0.00000000000000	0.00000000000000	34.17520200000000	0.00000000000000	0.00000000000000	0.00000000000000	0.00000000000000	
16.20160200000000	-26.60986400000000	742.92813899999999	52.13150800000000	0.25654500000000	0.00000000000000	0.12231100000000	0.00000000000000	0.00000000000000	0.00000000000000	0.00000000000000	0.00000000000000	0.00000000000000	0.00000000000000	34.37934800000000	0.00000000000000	0.00000000000000	0.00000000000000	0.00000000000000	
16.20328900000000	-27.26669800000000	744.52776600000004	52.28954500000000	0.25573800000000	0.00000000000000	0.12234100000000	0.00000000000000	0.00000000000000	0.00000000000000	0.00000000000000	0.00000000000000	0.00000000000000	0.00000000000000	34.58515400000000	0.00000000000000	0.00000000000000	0.00000000000000	0.00000000000000	
16.20493900000000	-27.92345800000000	746.13909899999999	52.44890800000000	0.25496300000000	0.00000000000000	0.12236900000000	0.00000000000000	0.00000000000000	0.00000000000000	0.00000000000000	0.00000000000000	0.00000000000000	0.00000000000000	34.79234800000000	0.00000000000000	0.00000000000000	0.00000000000000	0.00000000000000	
16.20660300000000	-28.57943100000000	747.76217399999996	52.60959400000000	0.25422000000000	0.00000000000000	0.12239300000000	0.00000000000000	0.00000000000000	0.00000000000000	0.00000000000000	0.00000000000000	0.00000000000000	0.00000000000000	35.00065500000000	0.00000000000000	0.00000000000000	0.00000000000000	0.00000000000000	
16.20827600000000	-29.23388400000000	749.39700900000003	52.77161200000000	0.25350900000000	0.00000000000000	0.12241400000000	0.00000000000000	0.00000000000000	0.00000000000000	0.00000000000000	0.00000000000000	0.00000000000000	0.00000000000000	35.20979700000000	0.00000000000000	0.00000000000000	0.00000000000000	0.00000000000000	
